<svg id="Слой_1" data-name="Слой 1" xmlns="http://www.w3.org/2000/svg" viewBox="0 0 128.77 30.41"><defs><style>.cls-1{font-size:20.61px;font-family:BahamasHeavyBoldCyr-BoldCyr, BahamasHeavy Bold Cyr;font-weight:700;}.cls-1,.cls-5{fill:#ffde00;}.cls-2,.cls-3{fill:none;}.cls-2,.cls-3,.cls-4{stroke:#ffde00;stroke-miterlimit:10;}.cls-2{stroke-width:2.81px;}.cls-3,.cls-4{stroke-width:1.78px;}.cls-4{fill:#fff;}</style></defs><title>BakuPakuLogoSVG</title><text class="cls-1" transform="translate(41.36 24.58)">BakuPaku</text><circle class="cls-2" cx="20.53" cy="9.87" r="5.22"/><path class="cls-3" d="M28.39,11.92s-.9-5.07-5.86-4.73a15.6,15.6,0,0,1-8.67-2" transform="translate(-13.27 -4.41)"/><path class="cls-4" d="M28.89,12.54a17.58,17.58,0,0,0,4.91.81,17.07,17.07,0,0,0,4.92-.81" transform="translate(-13.27 -4.41)"/><path class="cls-3" d="M13.86,10.44s1.8,1.6,7.21,0,7.32,1.48,7.32,1.48" transform="translate(-13.27 -4.41)"/><path class="cls-5" d="M44.42,33.39c.52.63.4,1,.09,1.25s-.7.31-1.22-.32a4.56,4.56,0,0,1-.65-1.94A4.55,4.55,0,0,1,44.42,33.39Z" transform="translate(-13.27 -4.41)"/><path class="cls-5" d="M38.86,32.38V27.12a3.74,3.74,0,0,0-3.74-3.73H32.48a3.73,3.73,0,0,0-3.73,3.73v5.24H24.92l0-10a6.53,6.53,0,0,1,6.54-6.53h4.61a6.53,6.53,0,0,1,6.53,6.53V32.38Z" transform="translate(-13.27 -4.41)"/><path class="cls-5" d="M36.7,32.38V28a2.27,2.27,0,0,0-2.16-2.37H33A2.27,2.27,0,0,0,30.86,28v4.4Z" transform="translate(-13.27 -4.41)"/></svg>